# xmcd
# Copyright (c) 1998 CDDB Inc.
#
# Track frame offsets:
#	182
#	16555
#	32367
#	48550
#	66337
#	78782
#	101070
#	109297
#	137760
#	149700
#	169975
#	187782
#
# Disc length: 3185 seconds
#
# Revision: 1
# Processed by: cddbd v1.5.2PL0 Copyright (c) Steve Scherf et al.
# Submitted via: AudioCatalyst 2.10full
#
DISCID=9e0c6f0c
DTITLE=Ollivaud - 30 ôns de calédo...neries
DYEAR=1900
DGENRE=
TTITLE0=Le ver de bancoule
TTITLE1=Mon gros poingo
TTITLE2=J'entends corner le car
TTITLE3=Moneo
TTITLE4=C'est toi... mon amour
TTITLE5=La rédac du tour cycliste
TTITLE6=Les élucubrations de Doui
TTITLE7=La nuit de noce de Joséphine
TTITLE8=Chanson du tour cycliste
TTITLE9=L'analyse d'urine
TTITLE10=Les cibistes Caldoches
TTITLE11=La visite du haussaire en tribu
EXTD=
EXTT0=
EXTT1=
EXTT2=
EXTT3=
EXTT4=
EXTT5=
EXTT6=
EXTT7=
EXTT8=
EXTT9=
EXTT10=
EXTT11=
PLAYORDER=
